<svg width="26.000000" height="25.000000" viewBox="0 0 26 25" fill="none" xmlns="http://www.w3.org/2000/svg" xmlns:xlink="http://www.w3.org/1999/xlink">
	<desc>
			Created with Pixso.
	</desc>
	<defs/>
	<path id="Vector 15" d="M15.7 16.61L19.08 16.61L19.87 12.06L15.7 12.06L15.7 9.23L19.87 9.23L19.87 4.62L15.45 4.62C14.14 4.64 11.44 5.51 11.08 8.84L11.08 12.06L8.2 12.06L8.2 16.61L11.08 16.61L11.08 24L3.53 24C2.52 23.83 0.5 22.94 0.5 20.73C0.5 18.51 0.5 8.17 0.5 3.29C0.53 2.21 1.18 0.06 3.53 0.02C5.87 -0.02 16.59 0 21.66 0.02C22.49 0.18 24.17 1.07 24.25 3.29C24.33 5.51 24.45 15.84 24.5 20.73C24.45 21.82 23.65 24 20.87 24C18.08 24 16.26 24 15.7 24L15.7 16.61Z" stroke="#000000" stroke-opacity="1.000000" stroke-width="2"/>
</svg>
