<svg width="33.985352" height="34.050293" viewBox="0 0 33.9854 34.0503" fill="none" xmlns="http://www.w3.org/2000/svg" xmlns:xlink="http://www.w3.org/1999/xlink">
	<desc>
			Created with Pixso.
	</desc>
	<defs/>
	<path id="Vector 9" d="M13.7598 7.15967C13.0654 6.43018 10.0146 3.34692 8.40137 1.72021C8.27344 1.59082 8.13477 1.46973 7.97461 1.38281C7.37891 1.06006 6.3457 0.775879 5.62598 1.52563C4.7998 2.38647 2.49902 4.21533 1.75293 5.45044C0.720703 7.15967 0.849609 7.57739 1.10742 9.75488C1.43066 12.4771 2.52734 14.7559 4.07715 17.6677C5.62598 20.5796 10.4033 25.7073 15.1807 29.1255C19.957 32.5439 23.7012 33.0503 24.7344 33.0503C25.7666 33.0503 27.3809 32.8604 29.3818 31.1511C30.7539 29.9795 31.7812 28.9719 32.2773 28.4553C32.4141 28.3132 32.5703 28.1877 32.6895 28.03C33.0225 27.5869 33.1729 26.7024 31.9639 25.5173C30.6152 24.1948 28.2637 21.668 27.0449 20.3408C26.8818 20.1633 26.7012 19.9988 26.4824 19.8977C25.916 19.6362 25.002 19.4504 24.2822 20.0732C23.79 20.499 23.0449 21.2498 22.3564 21.9685C21.5186 22.843 20.2393 23.1711 19.1758 22.5928C16.7852 21.293 13.4375 18.7725 11.0059 14.844C10.3184 13.7324 10.5977 12.311 11.5488 11.4143L13.3086 9.75488C13.7598 9.2063 14.4834 7.91919 13.7598 7.15967Z" stroke="#000000" stroke-opacity="1.000000" stroke-width="2.000000"/>
</svg>
